<svg width="1720" height="1745" viewBox="0 0 1720 1745" fill="none" xmlns="http://www.w3.org/2000/svg">
<path d="M910.39 1744.78V1301.32H1342.48C1342.48 1545.84 1148.64 1744.78 910.39 1744.78Z" fill="#D9D9D9"/>
<path d="M887.648 1301.32H455.554V1744.78H887.648V1301.32Z" fill="#D9D9D9"/>
<path d="M432.812 1744.78H171.3C76.846 1744.78 0.718506 1666.65 0.718506 1569.71V1301.32H432.812V1744.78Z" fill="#D9D9D9"/>
<path d="M434.411 364.658H172.9C78.4451 364.658 2.31763 442.789 2.31763 539.729V808.123H434.411V364.658Z" fill="#D9D9D9"/>
<path d="M1342.48 834.806H910.39V1278.27H1342.48V834.806Z" fill="#D9D9D9"/>
<path d="M887.648 834.806H455.554V1278.27H887.648V834.806Z" fill="#D9D9D9"/>
<path d="M432.812 834.806H0.718506V1278.27H432.812V834.806Z" fill="#D9D9D9"/>
<path d="M1719.32 774.01H946.101V0.789062C1372.44 0.789062 1719.32 346.969 1719.32 774.01Z" fill="#086CE8"/>
<path d="M889.247 364.657H457.153V808.122H889.247V364.657Z" fill="#D9D9D9"/>
</svg>
